<?xml version="1.0" encoding="UTF-8"?><svg id="_레이어_1" xmlns="http://www.w3.org/2000/svg" viewBox="0 0 374.56 211.38"><defs><style>.cls-1{fill:#fff;}.cls-2{fill:#1b1464;}</style></defs><g><path d="M64.57,49.98h14.5l1.2,7.1h.4c4.7-4.6,10.5-8.5,18.2-8.5,12.4,0,17.7,8.9,17.7,23.1v35.2h-17.8v-33c0-7.8-2.1-10.1-6.6-10.1-4,0-6.4,1.8-9.9,5.1v38h-17.7V49.98Z"/><path d="M126.87,116.48c0-4.7,2.8-8.5,8.1-11.2v-.5c-3-2-5.2-5-5.2-9.8,0-4,2.6-8,6.3-10.6v-.4c-4-2.8-7.7-8.1-7.7-14.7,0-13.9,11.5-20.7,23.8-20.7,3.3,0,6.4,.5,9,1.4h20.9v12.9h-8.8c.9,1.6,1.6,4.2,1.6,6.9,0,13.3-10.1,19.1-22.7,19.1-1.9,0-4.2-.3-6.7-1-1.3,1.2-1.8,2.1-1.8,4,0,2.6,2.3,3.8,8.4,3.8h9c14,0,21.9,4.3,21.9,14.6,0,12-12.4,20.5-32.2,20.5-13.1,0-23.9-4.1-23.9-14.3Zm39.1-3.1c0-3.4-3-4.1-8.3-4.1h-5.4c-4.1,0-6.3-.2-8.1-.7-1.8,1.6-2.7,3.2-2.7,5.1,0,4,4.8,6,12.1,6s12.4-2.7,12.4-6.3Zm-6.6-44.1c0-5.8-3-8.8-7.2-8.8s-7.2,3-7.2,8.8,3.1,8.9,7.2,8.9,7.2-3,7.2-8.9Z"/><path d="M193.37,32.48h26c15.4,0,27.7,4.1,27.7,18.4,0,6.6-3.7,13.8-9.7,16.1v.4c7.5,2,13.2,7.6,13.2,17.5,0,15.2-12.9,22-29.1,22h-28.1V32.48Zm25.3,29.5c7.6,0,11-3.3,11-8.4s-3.5-7.5-11-7.5h-7.4v15.9h7.4Zm1.5,31.2c8.6,0,13-3.1,13-9.5s-4.3-8.5-13-8.5h-8.9v18h8.9Z"/><path d="M258.27,78.48c0-18.9,13.4-29.9,27.9-29.9s27.8,11,27.8,29.9-13.4,29.8-27.8,29.8-27.9-11-27.9-29.8Zm37.5,0c0-9.5-3-15.5-9.6-15.5s-9.7,6-9.7,15.5,3,15.4,9.7,15.4,9.6-6,9.6-15.4Z"/><path d="M333.77,77.28l-16.4-27.3h19.1l4.7,8.8c1.5,3.2,3.1,6.5,4.7,9.7h.5c1.1-3.2,2.5-6.5,3.7-9.7l3.5-8.8h18.4l-16.4,29.3,17.4,27.6h-19.1l-5.2-8.9c-1.7-3.3-3.4-6.7-5.2-9.8h-.5c-1.4,3.1-2.8,6.4-4.2,9.8l-3.9,8.9h-18.5l17.4-29.6Z"/></g><g><path class="cls-1" d="M9.59,84.42c.47-.17,.83-.32,1.21-.45,3.68-1.34,7.36-2.67,11.03-4.02,.28-.1,.49-.1,.75,.07,3.01,1.96,6.03,3.91,9.04,5.86,.12,.08,.22,.16,.37,.27-2.78,3.45-5.53,6.87-8.32,10.33-4.69-4.02-9.34-8-14.08-12.06Z"/><path d="M26.25,101.71c1.19,.13,2.01,.73,2.55,1.72,.95,1.74-.68,3.86-2.24,3.92-2.08,.08-4.17,.06-6.25,0-1.1-.02-2.21-1.1-2.49-2.24-.26-1.06,.28-2.29,1.32-2.92,.36-.22,.79-.3,1.18-.47,.11-.05,.26-.19,.27-.29,.02-1.41,.02-2.83,0-4.24,0-.16-.17-.35-.31-.47-2.9-2.5-5.8-4.98-8.7-7.47-3.24-2.78-6.47-5.56-9.7-8.34-.22-.19-.49-.36-.64-.6-.46-.69-.34-1.41-.09-2.17,.56-1.7,1.49-3.23,2.27-4.81,2.98-6.02,6.01-12.01,8.99-18.03,.32-.64,.69-1.19,1.23-1.66,6.3-5.56,12.6-11.12,18.89-16.7,.27-.24,.43-.25,.71-.03,1.25,.99,2.68,1.67,4.13,2.3,.15,.07,.31,.14,.5,.23-.08,.1-.14,.17-.21,.23-5.59,5.01-11.17,10.02-16.76,15.04-.71,.64-1.42,1.28-2.1,1.95-.14,.14-.26,.35-.3,.54-.92,4.12-1.83,8.25-2.73,12.38-.03,.12-.03,.25-.06,.45,.64-.06,1.24-.12,1.83-.18,.93-.1,1.86-.22,2.8-.31,.34-.03,.62-.13,.87-.39,1.76-1.81,3.54-3.6,5.31-5.41,1.45-1.48,2.88-2.97,4.33-4.45,2.07-2.1,4.14-4.21,6.25-6.28,.5-.49,.75-1.02,.87-1.69,.65-3.51,1.32-7.01,1.98-10.52,.02-.12,.07-.24,.13-.4,1.68,.8,3.47,1.1,5.29,1.38-.36,1.99-.71,3.92-1.06,5.84-.38,2.11-.76,4.23-1.16,6.33-.14,.75-.55,1.37-1.08,1.91-5.04,5.13-10.08,10.26-15.12,15.39-.13,.13-.25,.27-.41,.43,.18,.13,.32,.24,.47,.34,5.04,3.33,10.09,6.67,15.13,10.01,.45,.3,.88,.63,1.28,1,1.25,1.14,.94,2.36-.15,3.38-.24,.22-.51,.41-.78,.59-5.22,3.43-10.44,6.86-15.68,10.26-.41,.27-.56,.55-.54,1.03,.04,1.11,.01,2.22,.01,3.37Zm-17.19-21.71c4.74,4.06,9.39,8.05,14.08,12.06,2.79-3.47,5.55-6.88,8.32-10.33-.15-.11-.25-.19-.37-.27-3.02-1.95-6.03-3.9-9.04-5.86-.26-.17-.47-.17-.75-.07-3.67,1.34-7.35,2.68-11.03,4.02-.37,.14-.74,.28-1.21,.45Z"/></g><circle cx="46.83" cy="20.5" r="20.5"/><path d="M9.59,107.17h27.21c6.69,3.08,9.87,5.35,9.54,6.83-.09,.39-.42,.72-1,1-12.09-.06-24.18-.12-36.27-.17H.91s-5.07-2.48,8.67-7.65Z"/><circle class="cls-2" cx="46.83" cy="20.5" r="13.5"/></svg>